<svg xmlns="http://www.w3.org/2000/svg" width="506" height="106" viewBox="0 0 506 106" fill="none">
<path d="M225.871 9.7128C226.886 9.7128 227.679 10.0616 228.249 10.7591C228.82 11.3932 229.105 12.2176 229.105 13.2322C229.105 13.7395 229.01 14.3419 228.82 15.0394L209.416 80.8611C209.099 81.8757 208.591 82.6683 207.894 83.2391C207.26 83.7464 206.499 84 205.611 84C204.723 84 203.931 83.7146 203.233 83.1439C202.599 82.5732 202.155 81.844 201.902 80.9562L186.492 24.7415L171.178 80.8611C170.861 81.8123 170.354 82.5732 169.656 83.1439C169.022 83.7146 168.261 84 167.374 84C166.486 84 165.693 83.7146 164.996 83.1439C164.362 82.5732 163.918 81.844 163.664 80.9562L144.165 15.0394C143.975 14.3419 143.88 13.7712 143.88 13.3273C143.88 12.2493 144.197 11.3932 144.831 10.7591C145.465 10.0616 146.289 9.7128 147.304 9.7128C149.079 9.7128 150.284 10.664 150.918 12.5663L167.374 69.9225L182.973 14.1833C183.163 13.4858 183.575 12.9151 184.21 12.4712C184.907 12.0273 185.668 11.8054 186.492 11.8054C187.317 11.8054 188.046 12.0273 188.68 12.4712C189.314 12.9151 189.758 13.5175 190.012 14.2785L205.706 70.0176L222.257 12.1859C222.764 10.5372 223.969 9.7128 225.871 9.7128ZM252.12 31.4948C256.813 31.4948 260.966 32.6045 264.581 34.824C268.195 36.98 270.985 39.992 272.951 43.8602C274.98 47.7283 275.995 52.1355 275.995 57.0816C275.995 58.0962 275.678 58.9205 275.044 59.5547C274.409 60.1254 273.585 60.4107 272.571 60.4107H234.143C234.65 65.6105 236.679 69.8274 240.23 73.0614C243.781 76.2954 248.22 77.9124 253.547 77.9124C255.83 77.9124 258.113 77.532 260.395 76.771C262.742 75.9467 264.612 74.9321 266.007 73.7273C266.832 73.0931 267.688 72.7761 268.576 72.7761C269.273 72.7761 269.971 73.0297 270.668 73.537C271.493 74.298 271.905 75.154 271.905 76.1052C271.905 76.9296 271.556 77.6588 270.858 78.2929C268.766 80.0685 266.102 81.5586 262.868 82.7635C259.634 83.9049 256.527 84.4756 253.547 84.4756C248.474 84.4756 243.94 83.3659 239.945 81.1465C235.95 78.8636 232.811 75.7247 230.528 71.7298C228.309 67.6714 227.199 63.1057 227.199 58.0328C227.199 52.8964 228.245 48.3307 230.338 44.3358C232.494 40.2774 235.443 37.1385 239.184 34.9191C242.989 32.6362 247.301 31.4948 252.12 31.4948ZM252.12 38.058C247.301 38.058 243.306 39.5482 240.135 42.5285C236.965 45.5089 235.031 49.4404 234.333 54.3232H269.146C268.639 49.4404 266.863 45.5089 263.82 42.5285C260.776 39.5482 256.876 38.058 252.12 38.058ZM315.588 31.4948C320.408 31.4948 324.751 32.668 328.62 35.0142C332.551 37.297 335.627 40.4676 337.846 44.526C340.129 48.521 341.27 52.9915 341.27 57.9377C341.27 62.8838 340.097 67.386 337.751 71.4444C335.468 75.5028 332.297 78.7051 328.239 81.0513C324.244 83.3342 319.774 84.4756 314.827 84.4756C309.881 84.4756 305.379 83.3342 301.321 81.0513C297.326 78.7051 294.155 75.5028 291.809 71.4444C289.526 67.386 288.385 62.8838 288.385 57.9377V35.5849C288.385 35.2044 288.416 34.9191 288.48 34.7288V13.4224C288.48 12.3444 288.797 11.4566 289.431 10.7591C290.128 10.0616 291.016 9.7128 292.094 9.7128C293.172 9.7128 294.06 10.0616 294.758 10.7591C295.455 11.4566 295.804 12.3444 295.804 13.4224V41.292C298.023 38.2482 300.845 35.8703 304.269 34.1581C307.694 32.3826 311.467 31.4948 315.588 31.4948ZM314.827 77.8173C318.442 77.8173 321.708 76.9613 324.625 75.2491C327.605 73.4736 329.92 71.0957 331.568 68.1153C333.28 65.0715 334.136 61.679 334.136 57.9377C334.136 54.1963 333.28 50.8355 331.568 47.8551C329.92 44.8114 327.605 42.4334 324.625 40.7213C321.708 39.0092 318.442 38.1531 314.827 38.1531C309.818 38.1531 305.538 39.7384 301.987 42.909C298.499 46.0796 296.438 50.138 295.804 55.0841C295.804 55.2743 295.772 55.4329 295.709 55.5597C295.645 56.067 295.614 56.8596 295.614 57.9377C295.614 61.679 296.438 65.0715 298.087 68.1153C299.799 71.0957 302.113 73.4736 305.03 75.2491C307.947 76.9613 311.213 77.8173 314.827 77.8173ZM432.393 9.7128C433.408 9.7128 434.232 10.0299 434.866 10.664C435.501 11.2981 435.818 12.1225 435.818 13.137C435.818 14.0882 435.501 14.8809 434.866 15.515C434.232 16.1491 433.408 16.4662 432.393 16.4662H409.755V80.2904C409.755 81.305 409.406 82.1928 408.709 82.9537C408.011 83.6512 407.124 84 406.046 84C405.031 84 404.143 83.6512 403.382 82.9537C402.685 82.1928 402.336 81.305 402.336 80.2904V16.4662H379.793C378.778 16.4662 377.954 16.1491 377.32 15.515C376.686 14.8809 376.369 14.0882 376.369 13.137C376.369 12.1225 376.686 11.2981 377.32 10.664C377.954 10.0299 378.778 9.7128 379.793 9.7128H432.393ZM500.239 9.7128C501.253 9.7128 502.046 10.0299 502.616 10.664C503.251 11.2981 503.568 12.0908 503.568 13.0419C503.568 13.676 503.409 14.3736 503.092 15.1345L474.747 81.622C474.049 83.2073 472.94 84 471.418 84C470.593 84 469.896 83.8415 469.325 83.5244C468.818 83.1439 468.374 82.5098 467.994 81.622L439.743 15.515C439.363 14.5638 439.173 13.7395 439.173 13.0419C439.173 12.0273 439.49 11.2347 440.124 10.664C440.821 10.0299 441.709 9.7128 442.787 9.7128C444.436 9.7128 445.577 10.5055 446.211 12.0908L471.418 72.3956L496.529 12.281C496.909 11.3298 497.385 10.664 497.956 10.2835C498.526 9.90304 499.287 9.7128 500.239 9.7128Z" fill="#141414"/>
<path fill-rule="evenodd" clip-rule="evenodd" d="M76.6275 12.0739C80.2502 5.75161 87.0644 1.49219 94.8733 1.49219C106.479 1.49219 115.887 10.9005 115.887 22.5063C115.887 34.1121 106.479 43.5204 94.8733 43.5204C94.8436 43.5204 94.8139 43.5203 94.7842 43.5202L104.75 60.7811C110.553 70.8319 107.109 83.684 97.0581 89.4868C87.0072 95.2897 74.1552 91.846 68.3523 81.7952L68.2935 81.6934C66.5092 84.8317 63.8919 87.5514 60.5396 89.4868C50.4887 95.2897 37.6367 91.846 31.8338 81.7952L3.81496 33.2651C-1.98793 23.2142 1.45577 10.3622 11.5067 4.55933C21.5576 -1.24355 34.4096 2.20014 40.2125 12.251L40.2712 12.3528C42.0555 9.21443 44.6728 6.49479 48.0252 4.55933C58.0168 -1.20932 70.7766 2.15984 76.6275 12.0739ZM84.3671 22.5055C84.3671 16.7026 89.0712 11.9984 94.8741 11.9984C100.677 11.9984 105.381 16.7026 105.381 22.5055C105.381 28.3084 100.677 33.0125 94.8741 33.0125C89.0712 33.0125 84.3671 28.3084 84.3671 22.5055ZM16.7623 13.6585C11.7369 16.5599 10.015 22.9859 12.9165 28.0113L40.9353 76.5414C43.8367 81.5668 50.2628 83.2887 55.2882 80.3872C60.3137 77.4858 62.0355 71.0598 59.1341 66.0343L31.1152 17.5043C28.2138 12.4789 21.7878 10.757 16.7623 13.6585ZM53.2808 13.6585C48.2554 16.5599 46.5335 22.9859 49.435 28.0113L77.4538 76.5414C80.3552 81.5668 86.7812 83.2887 91.8067 80.3872C96.8321 77.4858 98.554 71.0598 95.6525 66.0343L67.6337 17.5043C64.7323 12.4789 58.3063 10.757 53.2808 13.6585Z" fill="#141414"/>
</svg>
