<svg xmlns="http://www.w3.org/2000/svg" width="27" height="22" viewBox="0 0 27 22" fill="none">
<path fill-rule="evenodd" clip-rule="evenodd" d="M17.616 2.81388C18.4599 1.34153 20.0469 0.349609 21.8656 0.349609C24.5687 0.349609 26.7601 2.54097 26.7601 5.24416C26.7601 7.94734 24.5687 10.1387 21.8656 10.1387C21.8588 10.1387 21.852 10.1387 21.8453 10.1387L24.1661 14.1585C25.5177 16.4995 24.7156 19.493 22.3746 20.8446C20.0335 22.1961 17.0401 21.3941 15.6885 19.053L15.6748 19.0293C15.2592 19.7603 14.6495 20.3937 13.8687 20.8446C11.5277 22.1961 8.53422 21.3941 7.18263 19.053L0.656561 7.74954C-0.69503 5.40851 0.107068 2.41506 2.44809 1.06347C4.78912 -0.288124 7.78258 0.51397 9.13417 2.855L9.14789 2.87875C9.56349 2.14776 10.1731 1.51428 10.954 1.06347C13.2812 -0.280181 16.2533 0.504611 17.616 2.81388ZM19.4183 5.24317C19.4183 3.89158 20.514 2.7959 21.8655 2.7959C23.2171 2.7959 24.3128 3.89158 24.3128 5.24317C24.3128 6.59476 23.2171 7.69045 21.8655 7.69045C20.514 7.69045 19.4183 6.59476 19.4183 5.24317ZM3.67244 3.18359C2.50193 3.85939 2.10088 5.35612 2.77668 6.52663L9.30274 17.8301C9.97854 19.0006 11.4753 19.4017 12.6458 18.7259C13.8163 18.0501 14.2173 16.5533 13.5415 15.3828L7.01548 4.07935C6.33968 2.90884 4.84295 2.50779 3.67244 3.18359ZM12.1783 3.18359C11.0078 3.85939 10.6067 5.35612 11.2825 6.52663L17.8086 17.8301C18.4844 19.0006 19.9811 19.4017 21.1516 18.7259C22.3222 18.0501 22.7232 16.5533 22.0474 15.3828L15.5213 4.07935C14.8455 2.90884 13.3488 2.50779 12.1783 3.18359Z" fill="#141414"/>
</svg>
