<svg width="71" height="16" viewBox="0 0 71 16" fill="none" xmlns="http://www.w3.org/2000/svg">
<path d="M10.0839 5.27658C10.4234 4.93632 10.872 4.76555 11.3199 4.76555C11.7679 4.76555 12.2158 4.93568 12.556 5.27658L16.0666 8.79498C16.5132 9.24262 16.6849 9.90956 16.4752 10.5066C16.186 11.3314 15.4883 11.7435 14.7912 11.7435C14.3439 11.7435 13.8966 11.5733 13.5571 11.2337L10.0826 7.75156C9.40485 7.07104 9.40485 5.95775 10.0839 5.27658ZM5.66444 12.5191H7.61824C7.66148 12.5191 7.68278 12.4667 7.65245 12.4363L5.26491 10.0435C4.58524 9.3623 4.58524 8.24772 5.26491 7.56655C5.60442 7.22629 6.05236 7.05551 6.50095 7.05551C6.9489 7.05551 7.39684 7.22564 7.737 7.56655L9.00274 8.83509C9.00338 8.83573 9.00338 8.83638 9.00403 8.83703L12.4753 12.316C12.4759 12.3166 12.4766 12.3166 12.4766 12.3173L12.6134 12.4544C12.6547 12.4958 12.7109 12.5191 12.769 12.5191H16.8018C16.8547 12.5191 16.9057 12.501 16.9457 12.466C17.0012 12.4182 17.0554 12.3684 17.1077 12.316C17.7248 11.6975 18.0649 10.8728 18.0649 9.9943C18.0649 9.11583 17.7248 8.29171 17.1077 7.67264L13.6365 4.1937C13.0188 3.57528 12.1964 3.23438 11.3199 3.23438C10.4434 3.23438 9.62108 3.57528 9.00338 4.1937C8.5109 4.68727 8.21076 5.30052 8.09781 5.94029C7.61501 5.66989 7.0696 5.52369 6.50031 5.52369C5.62378 5.52369 4.80147 5.8646 4.18377 6.48302C3.56672 7.10209 3.22656 7.92686 3.22656 8.80533C3.22656 9.6838 3.56672 10.5079 4.18377 11.127L5.50889 12.455C5.5502 12.4958 5.60635 12.5191 5.66444 12.5191Z" fill="#141414"/>
<path d="M26.8716 9.90731C26.8716 10.3019 26.7386 10.6389 26.4772 10.9093C26.2158 11.1791 25.8885 11.3162 25.5051 11.3162H22.8659V8.51134H25.5051C25.8853 8.51134 26.2016 8.6446 26.4714 8.91888C26.7367 9.18927 26.8716 9.52242 26.8716 9.90731ZM22.8659 7.25639V4.62034H25.2198C25.569 4.62034 25.8724 4.75101 26.1209 5.00783C26.37 5.26528 26.4959 5.57902 26.4959 5.93804C26.4959 6.30677 26.372 6.6218 26.1267 6.87538C25.8821 7.12831 25.5774 7.25639 25.2198 7.25639H22.8659ZM26.9193 7.78748C27.5293 7.32108 27.8384 6.68649 27.8384 5.89923C27.8384 5.1786 27.5816 4.56536 27.0762 4.07567C26.5701 3.58727 25.9453 3.33887 25.2198 3.33887H21.5098V12.5964H25.5051C26.2577 12.5964 26.9045 12.3396 27.4266 11.8337C27.9501 11.3266 28.2154 10.6907 28.2154 9.94548C28.2154 9.44738 28.0869 9.00039 27.8333 8.61614C27.6016 8.26811 27.295 7.98931 26.9193 7.78748Z" fill="#141414"/>
<path d="M30.4557 6.62765V5.94196H29.1777V12.5971H30.4557V9.07416C30.4557 8.39041 30.6474 7.88907 31.0257 7.58374C31.4078 7.27583 31.8757 7.13351 32.4037 7.1581L32.4818 7.16198V5.91479L32.4121 5.91026C31.9706 5.88244 30.9695 5.90508 30.4557 6.62765Z" fill="#141414"/>
<path d="M37.9943 7.66265C38.419 8.09283 38.6352 8.63362 38.6352 9.26951C38.6352 9.90604 38.4196 10.4462 37.9943 10.8757C37.5696 11.3059 37.0326 11.5239 36.3987 11.5239C35.7733 11.5239 35.2408 11.3059 34.8154 10.8757C34.3907 10.4455 34.1745 9.90475 34.1745 9.26951C34.1745 8.63362 34.3901 8.09283 34.8154 7.66265C35.2408 7.23248 35.7733 7.01448 36.3987 7.01448C37.0319 7.01448 37.5689 7.23312 37.9943 7.66265ZM38.6346 6.90062C38.0659 6.15218 37.2669 5.77246 36.2554 5.77246C35.3292 5.77246 34.5295 6.11531 33.8782 6.79065C33.2263 7.46535 32.8965 8.29983 32.8965 9.26951C32.8965 10.2392 33.2263 11.073 33.8782 11.7477C34.5295 12.4231 35.3292 12.7659 36.2554 12.7659C37.2669 12.7659 38.0666 12.3868 38.6346 11.6377V12.5964H39.9132V5.94194H38.6346V6.90062Z" fill="#141414"/>
<path d="M46.0373 7.66201C46.462 8.09218 46.6782 8.63298 46.6782 9.26886C46.6782 9.90475 46.4626 10.4449 46.0373 10.8751C45.6119 11.3053 45.0749 11.5232 44.441 11.5232C43.8156 11.5232 43.2831 11.3053 42.8577 10.8751C42.433 10.4449 42.2168 9.9041 42.2168 9.26886C42.2168 8.63298 42.4324 8.09218 42.8577 7.66201C43.2831 7.23183 43.8156 7.01383 44.441 7.01383C45.0749 7.01383 45.6119 7.23183 46.0373 7.66201ZM46.6782 6.90062C46.1095 6.15153 45.3098 5.77246 44.2984 5.77246C43.3728 5.77246 42.5731 6.11531 41.9212 6.79065C41.2693 7.46535 40.9395 8.29983 40.9395 9.26951C40.9395 10.2392 41.2693 11.073 41.9212 11.7477C42.5731 12.4231 43.3728 12.7659 44.2984 12.7659C45.3098 12.7659 46.1095 12.3868 46.6782 11.6377V12.5971H47.9562V5.9413H46.6782V6.90062Z" fill="#141414"/>
<path d="M50.7982 3.85449H49.5195V10.6351C49.5195 11.4651 49.7622 12.0401 50.2418 12.3442C50.5697 12.5518 51.0305 12.656 51.6166 12.656C51.8735 12.656 52.1549 12.6359 52.4596 12.5958L52.5241 12.5874V11.4288L52.446 11.4327C52.0671 11.4508 51.747 11.4567 51.4901 11.4528C51.2526 11.4489 51.0757 11.3868 50.9654 11.2684C50.8537 11.1487 50.7975 10.9366 50.7975 10.6364V7.18464H52.5241V5.94263H50.7982V3.85449Z" fill="#141414"/>
<path d="M57.2722 5.7725C56.3956 5.7725 55.714 6.08883 55.2428 6.71307V3.85449H53.9648V12.5965H55.2428V9.07354C55.2428 8.36844 55.4107 7.84058 55.7405 7.50615C56.071 7.17106 56.5118 7.00158 57.0514 7.00158C57.5303 7.00158 57.9099 7.14066 58.1797 7.41494C58.4495 7.68921 58.5863 8.08575 58.5863 8.59226V12.5965H59.8649V8.52757C59.8649 7.68792 59.6268 7.01193 59.1562 6.51706C58.6851 6.02284 58.0512 5.7725 57.2722 5.7725Z" fill="#141414"/>
<path d="M62.3095 8.72613C62.4109 8.2138 62.6465 7.79656 63.0092 7.48411C63.3913 7.15485 63.8812 6.98795 64.466 6.98795C64.9649 6.98795 65.4077 7.1445 65.7827 7.45242C66.1371 7.74481 66.3688 8.17304 66.4689 8.72548H62.3095V8.72613ZM66.8516 6.80553C66.2378 6.11984 65.4348 5.77246 64.4654 5.77246C63.4449 5.77246 62.6019 6.10819 61.9591 6.77125C61.3162 7.43301 60.9902 8.27396 60.9902 9.26951C60.9902 10.2741 61.3226 11.1177 61.9784 11.7749C62.6349 12.4328 63.4978 12.7659 64.5435 12.7659C65.8376 12.7659 66.82 12.26 67.4628 11.2613L67.5055 11.1953C67.5823 11.0801 67.6662 10.9223 67.6662 10.9223H67.0259H66.1571C65.7821 11.3369 65.2515 11.5498 64.5699 11.5498C63.9748 11.5498 63.4681 11.3926 63.0634 11.0834C62.682 10.7923 62.429 10.3821 62.3115 9.864H67.7236L67.7333 9.8006C67.7591 9.6253 67.7727 9.45064 67.7727 9.2818C67.7733 8.32183 67.4635 7.48864 66.8516 6.80553Z" fill="#141414"/>
</svg>
